<svg width="25" height="24" viewBox="0 0 25 24" fill="none" xmlns="http://www.w3.org/2000/svg">
<path d="M11.257 12.0002L16.207 16.9502C16.3025 17.0424 16.3787 17.1528 16.4311 17.2748C16.4835 17.3968 16.5111 17.528 16.5122 17.6608C16.5134 17.7936 16.4881 17.9252 16.4378 18.0481C16.3875 18.171 16.3133 18.2827 16.2194 18.3766C16.1255 18.4705 16.0138 18.5447 15.8909 18.595C15.768 18.6453 15.6364 18.6706 15.5036 18.6694C15.3708 18.6683 15.2396 18.6407 15.1176 18.5883C14.9956 18.5359 14.8852 18.4597 14.793 18.3642L9.13599 12.7072C8.94852 12.5197 8.8432 12.2653 8.8432 12.0002C8.8432 11.735 8.94852 11.4807 9.13599 11.2932L14.793 5.63618C14.9816 5.45402 15.2342 5.35323 15.4964 5.35551C15.7586 5.35778 16.0094 5.46295 16.1948 5.64836C16.3802 5.83377 16.4854 6.08458 16.4877 6.34678C16.4899 6.60898 16.3891 6.86158 16.207 7.05018L11.257 12.0002Z" fill="#697077"/>
</svg>
