<svg width="16" height="16" viewBox="0 0 16 16" fill="none" xmlns="http://www.w3.org/2000/svg">
<path d="M3.33333 10C2.8029 10 2.29419 9.78929 1.91911 9.41421C1.54404 9.03914 1.33333 8.53043 1.33333 8C1.33333 7.46957 1.54404 6.96086 1.91911 6.58579C2.29419 6.21071 2.8029 6 3.33333 6C3.86376 6 4.37247 6.21071 4.74754 6.58579C5.12261 6.96086 5.33333 7.46957 5.33333 8C5.33333 8.53043 5.12261 9.03914 4.74754 9.41421C4.37247 9.78929 3.86376 10 3.33333 10ZM12.6667 10C12.1362 10 11.6275 9.78929 11.2524 9.41421C10.8774 9.03914 10.6667 8.53043 10.6667 8C10.6667 7.46957 10.8774 6.96086 11.2524 6.58579C11.6275 6.21071 12.1362 6 12.6667 6C13.1971 6 13.7058 6.21071 14.0809 6.58579C14.4559 6.96086 14.6667 7.46957 14.6667 8C14.6667 8.53043 14.4559 9.03914 14.0809 9.41421C13.7058 9.78929 13.1971 10 12.6667 10ZM8 10C7.46956 10 6.96085 9.78929 6.58578 9.41421C6.21071 9.03914 6 8.53043 6 8C6 7.46957 6.21071 6.96086 6.58578 6.58579C6.96085 6.21071 7.46956 6 8 6C8.53043 6 9.03914 6.21071 9.41421 6.58579C9.78928 6.96086 10 7.46957 10 8C10 8.53043 9.78928 9.03914 9.41421 9.41421C9.03914 9.78929 8.53043 10 8 10Z" fill="#697077"/>
</svg>
