<svg width="25" height="24" viewBox="0 0 25 24" fill="none" xmlns="http://www.w3.org/2000/svg">
<path d="M13.814 12.0715L8.864 7.12147C8.68184 6.93287 8.58105 6.68027 8.58333 6.41807C8.58561 6.15587 8.69078 5.90506 8.87618 5.71965C9.06159 5.53424 9.3124 5.42907 9.5746 5.4268C9.8368 5.42452 10.0894 5.52531 10.278 5.70747L15.935 11.3645C16.1225 11.552 16.2278 11.8063 16.2278 12.0715C16.2278 12.3366 16.1225 12.5909 15.935 12.7785L10.278 18.4355C10.0894 18.6176 9.8368 18.7184 9.5746 18.7161C9.3124 18.7139 9.06159 18.6087 8.87618 18.4233C8.69078 18.2379 8.58561 17.9871 8.58333 17.7249C8.58105 17.4627 8.68184 17.2101 8.864 17.0215L13.814 12.0715Z" fill="#0F62FE"/>
</svg>
