<svg width="14" height="8" viewBox="0 0 14 8" fill="none" xmlns="http://www.w3.org/2000/svg">
<path d="M6.66929 5.42033L11.6193 0.470327C11.7115 0.374817 11.8219 0.298635 11.9439 0.246226C12.0659 0.193817 12.1971 0.166231 12.3299 0.165077C12.4627 0.163923 12.5943 0.189225 12.7172 0.239506C12.8401 0.289786 12.9518 0.36404 13.0457 0.457932C13.1396 0.551825 13.2138 0.663477 13.2641 0.786373C13.3144 0.90927 13.3397 1.04095 13.3385 1.17373C13.3374 1.30651 13.3098 1.43773 13.2574 1.55973C13.205 1.68174 13.1288 1.79208 13.0333 1.88433L7.37629 7.54133C7.18876 7.7288 6.93445 7.83411 6.66929 7.83411C6.40412 7.83411 6.14982 7.7288 5.96229 7.54133L0.305288 1.88433C0.209778 1.79208 0.133596 1.68174 0.0811868 1.55973C0.0287778 1.43773 0.00119157 1.30651 3.77568e-05 1.17373C-0.00111606 1.04095 0.0241856 0.90927 0.0744665 0.786373C0.124747 0.663477 0.199001 0.551825 0.292893 0.457932C0.386786 0.36404 0.498438 0.289786 0.621334 0.239506C0.744231 0.189225 0.87591 0.163923 1.00869 0.165077C1.14147 0.166231 1.27269 0.193817 1.39469 0.246226C1.5167 0.298635 1.62704 0.374817 1.71929 0.470327L6.66929 5.42033Z" fill="#697077"/>
</svg>
